<svg xmlns="http://www.w3.org/2000/svg" enable-background="new 0 0 512 512" viewBox="0 0 512 512"><linearGradient id="a" x1="68.037" x2="510.77" y1="553.893" y2="111.16" gradientUnits="userSpaceOnUse"><stop offset="0" stop-color="#ffae46"/><stop offset="1" stop-color="#fff050"/></linearGradient><path fill="url(#a)" d="M480.169,255.478H31.83c-17.553,0-31.815,14.262-31.815,31.763v185.511c0,17.501,14.262,31.763,31.815,31.763h448.339c17.554,0,31.816-14.262,31.816-31.763V287.241C511.985,269.74,497.723,255.478,480.169,255.478z M249.02,302.39h13.974c5.77,0,10.448,4.678,10.448,10.448s-4.678,10.448-10.448,10.448H249.02c-5.77,0-10.448-4.678-10.448-10.448S243.249,302.39,249.02,302.39z M249.02,347.163h13.974c5.77,0,10.448,4.678,10.448,10.448s-4.678,10.448-10.448,10.448H249.02c-5.77,0-10.448-4.678-10.448-10.448S243.249,347.163,249.02,347.163z M249.02,391.936h13.974c5.77,0,10.448,4.678,10.448,10.448c0,5.77-4.678,10.448-10.448,10.448H249.02c-5.77,0-10.448-4.678-10.448-10.448C238.571,396.614,243.249,391.936,249.02,391.936z M186.151,302.39h13.974c5.77,0,10.448,4.678,10.448,10.448s-4.678,10.448-10.448,10.448h-13.974c-5.77,0-10.448-4.678-10.448-10.448S180.381,302.39,186.151,302.39z M186.151,347.163h13.974c5.77,0,10.448,4.678,10.448,10.448s-4.678,10.448-10.448,10.448h-13.974c-5.77,0-10.448-4.678-10.448-10.448S180.381,347.163,186.151,347.163z M186.151,391.936h13.974c5.77,0,10.448,4.678,10.448,10.448c0,5.77-4.678,10.448-10.448,10.448h-13.974c-5.77,0-10.448-4.678-10.448-10.448C175.703,396.614,180.381,391.936,186.151,391.936z M74.387,457.606H60.419c-5.77,0-10.448-4.678-10.448-10.448c0-5.77,4.678-10.448,10.448-10.448h13.969c5.77,0,10.448,4.678,10.448,10.448C84.836,452.927,80.157,457.606,74.387,457.606z M74.387,412.833H60.419c-5.77,0-10.448-4.678-10.448-10.448c0-5.77,4.678-10.448,10.448-10.448h13.969c5.77,0,10.448,4.678,10.448,10.448C84.836,408.154,80.157,412.833,74.387,412.833z M74.387,368.06H60.419c-5.77,0-10.448-4.678-10.448-10.448s4.678-10.448,10.448-10.448h13.969c5.77,0,10.448,4.678,10.448,10.448S80.157,368.06,74.387,368.06z M74.387,323.287H60.419c-5.77,0-10.448-4.678-10.448-10.448s4.678-10.448,10.448-10.448h13.969c5.77,0,10.448,4.678,10.448,10.448S80.157,323.287,74.387,323.287z M137.256,457.606h-13.974c-5.77,0-10.448-4.678-10.448-10.448c0-5.77,4.678-10.448,10.448-10.448h13.974c5.77,0,10.448,4.678,10.448,10.448C147.704,452.927,143.026,457.606,137.256,457.606z M137.256,412.833h-13.974c-5.77,0-10.448-4.678-10.448-10.448c0-5.77,4.678-10.448,10.448-10.448h13.974c5.77,0,10.448,4.678,10.448,10.448C147.704,408.154,143.026,412.833,137.256,412.833z M137.256,368.06h-13.974c-5.77,0-10.448-4.678-10.448-10.448s4.678-10.448,10.448-10.448h13.974c5.77,0,10.448,4.678,10.448,10.448S143.026,368.06,137.256,368.06z M137.256,323.287h-13.974c-5.77,0-10.448-4.678-10.448-10.448s4.678-10.448,10.448-10.448h13.974c5.77,0,10.448,4.678,10.448,10.448S143.026,323.287,137.256,323.287z M325.862,457.606H186.151c-5.77,0-10.448-4.678-10.448-10.448c0-5.77,4.678-10.448,10.448-10.448h139.711c5.77,0,10.448,4.678,10.448,10.448C336.31,452.927,331.632,457.606,325.862,457.606z M325.862,412.833h-13.974c-5.77,0-10.448-4.678-10.448-10.448c0-5.77,4.678-10.448,10.448-10.448h13.974c5.77,0,10.448,4.678,10.448,10.448C336.31,408.154,331.632,412.833,325.862,412.833z M325.862,368.06h-13.974c-5.77,0-10.448-4.678-10.448-10.448s4.678-10.448,10.448-10.448h13.974c5.77,0,10.448,4.678,10.448,10.448S331.632,368.06,325.862,368.06z M325.862,323.287h-13.974c-5.77,0-10.448-4.678-10.448-10.448s4.678-10.448,10.448-10.448h13.974c5.77,0,10.448,4.678,10.448,10.448S331.632,323.287,325.862,323.287z M388.731,457.606h-13.974c-5.77,0-10.448-4.678-10.448-10.448c0-5.77,4.678-10.448,10.448-10.448h13.974c5.77,0,10.448,4.678,10.448,10.448C399.179,452.927,394.501,457.606,388.731,457.606z M388.731,412.833h-13.974c-5.77,0-10.448-4.678-10.448-10.448c0-5.77,4.678-10.448,10.448-10.448h13.974c5.77,0,10.448,4.678,10.448,10.448C399.179,408.154,394.501,412.833,388.731,412.833z M388.731,368.06h-13.974c-5.77,0-10.448-4.678-10.448-10.448s4.678-10.448,10.448-10.448h13.974c5.77,0,10.448,4.678,10.448,10.448S394.501,368.06,388.731,368.06z M388.731,323.287h-13.974c-5.77,0-10.448-4.678-10.448-10.448s4.678-10.448,10.448-10.448h13.974c5.77,0,10.448,4.678,10.448,10.448S394.501,323.287,388.731,323.287z M451.594,457.606h-13.969c-5.77,0-10.448-4.678-10.448-10.448c0-5.77,4.678-10.448,10.448-10.448h13.969c5.77,0,10.448,4.678,10.448,10.448C462.042,452.927,457.364,457.606,451.594,457.606z M451.594,412.833h-13.969c-5.77,0-10.448-4.678-10.448-10.448c0-5.77,4.678-10.448,10.448-10.448h13.969c5.77,0,10.448,4.678,10.448,10.448C462.042,408.154,457.364,412.833,451.594,412.833z M451.594,368.06h-13.969c-5.77,0-10.448-4.678-10.448-10.448s4.678-10.448,10.448-10.448h13.969c5.77,0,10.448,4.678,10.448,10.448S457.364,368.06,451.594,368.06z M451.594,323.287h-13.969c-5.77,0-10.448-4.678-10.448-10.448s4.678-10.448,10.448-10.448h13.969c5.77,0,10.448,4.678,10.448,10.448S457.364,323.287,451.594,323.287z M133.963,234.581H65.527c4.492-9.926,13.165-17.553,23.77-20.583v-30.927c0-35.159,28.629-63.787,63.84-63.787h196.272c23.665,0,42.89-19.277,42.89-42.943V17.934c0-5.799,4.702-10.448,10.448-10.448c5.799,0,10.448,4.65,10.448,10.448v58.407c0,35.211-28.628,63.839-63.787,63.839H153.136c-23.666,0-42.943,19.225-42.943,42.891v30.927C120.798,217.028,129.471,224.655,133.963,234.581z"/></svg>